<svg width="50" height="50" viewBox="0 0 100 100" fill="none" xmlns="http://www.w3.org/2000/svg">
<g clip-path="url(#clip0)">
<path d="M22.7273 99.5078V48.259L10.7449 33.7186L0 25.6497V90.4637C0 95.4679 3.05664 99.5078 6.81836 99.5078H22.7273V99.5078Z" fill="#4285F4"/>
<path d="M77.2727 99.5078H93.1817C96.9547 99.5078 100 95.4529 100 90.4637V25.6503L87.8297 34.8922L77.2727 48.2591V99.5078V99.5078Z" fill="#34A853"/>
<path d="M22.7273 48.259L21.0968 28.2347L22.7273 9.0694L49.9999 36.201L77.2726 9.0694L79.0968 27.2L77.2726 48.259L49.9999 75.3906L22.7273 48.259Z" fill="#EA4335"/>
<path d="M77.2727 9.06957V48.2592L100 25.6499V13.5913C100 2.4074 90.3751 -3.96825 83.6368 2.739L77.2727 9.06957Z" fill="#FBBC04"/>
<path d="M0 25.6497L10.4527 36.0487L22.7273 48.259V9.06938L16.3633 2.73882C9.61328 -3.96896 0 2.40721 0 13.5906V25.6492V25.6497Z" fill="#C5221F"/>
</g>
<defs>
<clipPath id="clip0">
<rect width="100" height="100" fill="white"/>
</clipPath>
</defs>
</svg>
