<svg width="50" height="50" viewBox="0 0 94 94" fill="none" xmlns="http://www.w3.org/2000/svg">
<path d="M46.9998 31.3789C38.3983 31.3789 31.3787 38.3984 31.3787 46.9999C31.3787 55.6015 38.3983 62.621 46.9998 62.621C55.6014 62.621 62.6209 55.6015 62.6209 46.9999C62.6209 38.3984 55.6014 31.3789 46.9998 31.3789ZM93.8514 46.9999C93.8514 40.5312 93.91 34.121 93.5467 27.664C93.1834 20.164 91.4725 13.5078 85.9881 8.02338C80.492 2.52729 73.8475 0.82807 66.3475 0.464789C59.8787 0.101508 53.4686 0.160102 47.0115 0.160102C40.5428 0.160102 34.1326 0.101508 27.6756 0.464789C20.1756 0.82807 13.5194 2.53901 8.03498 8.02338C2.53889 13.5195 0.839667 20.164 0.476386 27.664C0.113105 34.1328 0.171699 40.5429 0.171699 46.9999C0.171699 53.457 0.113105 59.8788 0.476386 66.3359C0.839667 73.8359 2.5506 80.4921 8.03498 85.9765C13.5311 91.4726 20.1756 93.1718 27.6756 93.5351C34.1444 93.8984 40.5545 93.8398 47.0115 93.8398C53.4803 93.8398 59.8904 93.8984 66.3475 93.5351C73.8475 93.1718 80.5037 91.4609 85.9881 85.9765C91.4842 80.4804 93.1834 73.8359 93.5467 66.3359C93.9217 59.8788 93.8514 53.4687 93.8514 46.9999V46.9999ZM46.9998 71.0351C33.699 71.0351 22.9647 60.3007 22.9647 46.9999C22.9647 33.6992 33.699 22.9648 46.9998 22.9648C60.3006 22.9648 71.035 33.6992 71.035 46.9999C71.035 60.3007 60.3006 71.0351 46.9998 71.0351ZM72.0193 27.5937C68.9139 27.5937 66.4061 25.0859 66.4061 21.9804C66.4061 18.8749 68.9139 16.3671 72.0193 16.3671C75.1248 16.3671 77.6326 18.8749 77.6326 21.9804C77.6336 22.7178 77.489 23.4482 77.2072 24.1296C76.9255 24.8111 76.512 25.4302 75.9906 25.9517C75.4692 26.4731 74.85 26.8865 74.1686 27.1683C73.4871 27.4501 72.7568 27.5946 72.0193 27.5937V27.5937Z" fill="black"/>
</svg>
